Coordinates
version=1
nRows=9
nColumns=36
inDegrees=yes

Units are S.I. units (second, meters, Newtons, ...)
If the header above contains a line with 'inDegrees', this indicates whether rotational values are in degrees (yes) or radians (no).

endheader
time	pelvis_tilt	pelvis_list	pelvis_rotation	pelvis_tx	pelvis_ty	pelvis_tz	hip_flexion_r	hip_adduction_r	hip_rotation_r	knee_angle_r	knee_angle_r_beta	ankle_angle_r	subtalar_angle_r	mtp_angle_r	hip_flexion_l	hip_adduction_l	hip_rotation_l	knee_angle_l	knee_angle_l_beta	ankle_angle_l	subtalar_angle_l	mtp_angle_l	lumbar_extension	lumbar_bending	lumbar_rotation	arm_flex_r	arm_add_r	arm_rot_r	elbow_flex_r	pro_sup_r	arm_flex_l	arm_add_l	arm_rot_l	elbow_flex_l	pro_sup_l
      0.00000000	     13.95591183	      0.63223566	     -0.91094847	     -0.05214159	      1.20031497	     -0.06492445	    -14.24693148	      2.86823456	      0.41497457	      0.37320636	      0.00651368	      7.00032201	     -8.80433515	     -6.00927809	    -14.69285706	     -4.45165188	      1.09579214	      0.64289898	      0.01122070	      6.22271674	     -9.14556770	     -6.00927809	    -17.00785889	      4.29110030	     -4.18127029	     11.83063094	     -7.37747834	     43.07902371	     20.82817048	     65.37612925	      8.58962358	     -6.62827947	     36.07518949	     26.49800301	     58.28220780
      0.01666670	     12.34177711	      1.27277034	     -1.51428677	     -0.05127815	      1.19875212	     -0.06487887	    -12.22889387	      2.20543421	      1.40129403	      0.40406530	      0.00705227	      8.85942599	     -9.18653283	     -6.17682748	    -12.83762140	     -3.23021274	      0.01406464	      0.63245294	      0.01103839	      5.33356841	     -8.22713555	     -6.17682748	    -13.95980958	      3.84309022	     -3.59403008	     10.92046886	     -7.11278137	     42.91045630	     20.06495346	     66.98465447	      8.01174742	     -6.62421607	     36.14473551	     26.52495874	     59.41116799
      0.03333330	     11.16775714	      2.14941289	     -2.16553230	     -0.05095134	      1.19646637	     -0.06368392	    -10.89275300	      1.23626825	      1.45305159	      0.32836188	      0.00573100	      8.57238671	     -9.57306741	     -6.33473689	    -11.47845147	     -2.28216763	     -1.23274639	      0.63079047	      0.01100937	      5.07214435	     -7.28885357	     -6.33473689	    -12.11167789	      2.61068853	     -2.86916615	     10.38560878	     -6.51561187	     41.91244891	     19.38825189	     68.83420012	      8.23499531	     -6.87120671	     36.66278180	     25.87655146	     60.71804162
      0.05000000	     11.61413930	      2.70229011	     -2.29564423	     -0.05216093	      1.19573997	     -0.06289446	    -11.48250513	      0.64017577	      1.15203061	      0.29666568	      0.00517779	      9.12481302	     -8.60209122	     -6.42401222	    -11.98876110	     -1.68435460	     -1.61410799	      0.50160978	      0.00875474	      4.63386219	     -7.58056501	     -6.42401222	    -12.60286672	      1.78434172	     -2.59586272	     10.13038009	     -6.16459576	     40.35948407	     19.35103759	     69.58023610	      8.61801903	     -7.10015315	     36.64367963	     25.90090823	     61.40085771
      0.06666670	     11.41767602	      2.93241118	     -2.41275563	     -0.05286943	      1.19521374	     -0.06262892	    -11.35254723	      0.44705508	      1.86908967	      0.28002753	      0.00488740	      8.96785600	     -9.34391020	     -6.50713939	    -11.73673293	     -1.43863792	     -2.15310718	      0.44738655	      0.00780837	      4.42570867	     -7.44795477	     -6.50713939	    -12.36713223	      1.60502740	     -2.33760649	     10.03348383	     -5.89098116	     39.54588395	     18.93304960	     69.28168160	      8.70323306	     -6.80413783	     36.17997744	     25.22687344	     61.40262632
      0.08333330	     11.67591906	      3.03291594	     -2.46057017	     -0.05320951	      1.19689298	     -0.06193876	    -11.65080592	      0.35101674	      2.17002293	      0.26435925	      0.00461394	      8.74647948	     -9.63949134	     -6.60311682	    -11.94167638	     -1.29719412	     -2.63730038	      0.39803478	      0.00694702	      4.36812440	     -7.11486746	     -6.60311682	    -12.87989771	      1.56659619	     -2.02358381	     10.13913213	     -5.78662100	     38.72722261	     19.04038622	     68.89468331	      8.90815727	     -6.58017371	     35.76600577	     25.09029728	     61.37467138
      0.10000000	     11.58501714	      3.09262476	     -2.53977628	     -0.05590520	      1.19585322	     -0.06272738	    -11.49260843	      0.25778887	      2.38159024	      0.25242016	      0.00440556	      8.54305283	    -10.07476520	     -7.15203426	    -11.70787724	     -1.19186628	     -2.45303676	      0.38136283	      0.00665604	      4.05309598	     -7.40036690	     -7.15203426	    -13.00028365	      1.58178110	     -1.48156035	      9.78959291	     -5.72157252	     33.12104792	     19.47359771	     82.95485683	      9.20318393	     -6.25336479	     35.25332157	     24.68497688	     65.35993960
      0.11666670	     11.65048627	      3.11075618	     -2.74190305	     -0.05581552	      1.19760741	     -0.06260037	    -11.47893659	      0.16398358	      2.63493396	      0.23737167	      0.00414292	      8.22375966	    -10.41925022	     -7.22066322	    -11.72701941	     -1.10050068	     -2.88946901	      0.37367394	      0.00652184	      3.96107998	     -6.81041326	     -7.22066322	    -13.24497736	      1.56837268	     -0.99416197	      9.80090805	     -5.98764425	     34.05104564	     19.99921233	     79.74518047	      9.36484888	     -6.01140407	     35.24498203	     24.63758465	     64.34813688
      0.13333330	     11.32694419	      3.13254837	     -2.78054060	     -0.05594520	      1.19698281	     -0.06277966	    -11.05623695	      0.10845163	      2.78522212	      0.22697206	      0.00396141	      8.06737252	    -10.53922637	     -7.24969939	    -11.32068666	     -1.04264764	     -2.37883630	      0.38056480	      0.00664211	      3.32827060	     -7.69585042	     -7.24969939	    -12.98950535	      1.62016568	     -0.94742070	     10.02993664	     -6.10206797	     35.54005409	     19.68083308	     79.72666268	      9.38664685	     -5.85916768	     35.56707183	     24.23602041	     64.13083322
